<?xml version="1.0" encoding="utf-8"?>
<!-- Generator: Adobe Illustrator 16.0.0, SVG Export Plug-In . SVG Version: 6.00 Build 0)  -->
<!DOCTYPE svg PUBLIC "-//W3C//DTD SVG 1.1//EN" "http://www.w3.org/Graphics/SVG/1.1/DTD/svg11.dtd">
<svg version="1.1" id="Layer_1" xmlns="http://www.w3.org/2000/svg" xmlns:xlink="http://www.w3.org/1999/xlink" x="0px" y="0px"
	 width="97.367px" height="61.22px" viewBox="0 0 97.367 61.22" enable-background="new 0 0 97.367 61.22" xml:space="preserve">
<g>
	<defs>
		<rect id="SVGID_1_" width="97.367" height="61.22"/>
	</defs>
	<clipPath id="SVGID_2_">
		<use xlink:href="#SVGID_1_"  overflow="visible"/>
	</clipPath>
	<path clip-path="url(#SVGID_2_)" fill="#0099DB" d="M55.729,9.069c0.104,0,0.205-0.038,0.283-0.108
		c4.053-3.601,9.35-5.788,15.141-5.788c12.705,0,23.043,10.511,23.043,23.432c0,3.711-0.858,7.22-2.375,10.342
		c-0.13,0.265-0.198,0.552-0.198,0.846v4.085c0,0.431,0.552,0.6,0.803,0.248c3.107-4.371,4.943-9.732,4.943-15.521
		C97.368,11.934,85.606,0,71.152,0c-7.486,0-14.244,3.205-19.025,8.33c-0.261,0.279-0.052,0.739,0.33,0.739H55.729z"/>
	<path clip-path="url(#SVGID_2_)" fill="#003865" d="M13.865,14.973h-8.67c-0.969,0-1.355,0.349-1.355,1.316v14.1H0.447
		C0.2,30.388,0,30.588,0,30.836v2.561c0,0.247,0.2,0.448,0.447,0.448H3.84v7.293c0,0.968,0.386,1.316,1.355,1.316h8.67
		c7.122,0,11.225-3.87,11.225-10.219V25.19C25.09,18.843,20.987,14.973,13.865,14.973 M20.252,32.275c0,3.677-2.284,5.65-6.349,5.65
		H8.718V19.501h5.185c4.065,0,6.349,1.973,6.349,5.651V32.275z"/>
	<path clip-path="url(#SVGID_2_)" fill="#003865" d="M38.56,21.823c-5.845,0-8.98,2.943-8.98,8.363v0.24h-2.045
		c-0.247,0-0.447,0.2-0.447,0.447v2.562c0,0.247,0.2,0.448,0.447,0.448h2.045v0.869c0,5.07,2.865,8.282,8.904,8.282
		c4.064,0,6.85-1.237,8.36-3.716c0.581-0.89,0.426-1.508-0.464-1.935l-1.355-0.736c-0.929-0.502-1.355-0.424-1.974,0.465
		c-0.891,1.355-2.4,2.051-4.567,2.051c-2.826,0-4.413-1.353-4.413-3.868v-1.435H45.76c1.162,0,1.742-0.542,1.742-1.664v-2.36
		C47.502,25.152,44.445,21.823,38.56,21.823 M43.012,30.417h-8.941v-0.852c0-2.515,1.587-3.948,4.489-3.948
		c2.942,0,4.452,1.433,4.452,3.948V30.417z"/>
	<path clip-path="url(#SVGID_2_)" fill="#003865" d="M55.302,13.812h-2.091c-0.929,0-1.2,0.31-1.2,1.2v26.243
		c0,0.892,0.271,1.201,1.2,1.201h2.091c0.891,0,1.2-0.31,1.2-1.201V15.012C56.502,14.122,56.192,13.812,55.302,13.812"/>
	<path clip-path="url(#SVGID_2_)" fill="#003865" d="M70.048,21.823c-2.979,0-5.458,0.389-7.509,1.124
		c-1.239,0.503-1.51,0.967-1.51,2.205v24.696c0,0.889,0.31,1.2,1.199,1.2h2.13c0.89,0,1.161-0.312,1.161-1.2v-7.509
		c1.78,0.465,3.136,0.695,4.064,0.695c5.767,0,8.631-2.709,8.631-8.089v-5.302C78.215,24.572,75.506,21.823,70.048,21.823
		 M73.725,34.791c0,2.748-1.47,4.143-4.45,4.143c-1.008,0-2.245-0.194-3.755-0.58V26.856c0-0.232,0.115-0.387,0.388-0.503
		c1.006-0.272,2.167-0.425,3.482-0.425c2.903,0,4.335,1.276,4.335,3.831V34.791z"/>
	<path clip-path="url(#SVGID_2_)" fill="#003865" d="M85.094,14.934h-0.271c-1.82,0-2.362,0.581-2.362,2.322v0.349
		c0,1.819,0.62,2.361,2.362,2.361h0.271c1.818,0,2.36-0.542,2.36-2.361v-0.349C87.454,15.515,86.912,14.934,85.094,14.934"/>
	<path clip-path="url(#SVGID_2_)" fill="#003865" d="M86.774,22.443h-0.752h-2.129h-3.206c-0.247,0-0.446,0.2-0.446,0.448v2.562
		c0,0.247,0.199,0.447,0.446,0.447h2.045v15.394c0,0.889,0.271,1.199,1.161,1.199h2.129c0.891,0,1.2-0.311,1.2-1.199V25.453v-1.849
		v-0.713C87.223,22.644,87.022,22.443,86.774,22.443"/>
	<path clip-path="url(#SVGID_2_)" fill="#003865" d="M8.125,57.072v0.198c0,0.155-0.055,0.21-0.199,0.21H7.329
		c-0.155,0-0.21-0.055-0.21-0.21v-0.121c0-0.466-0.254-0.73-1.095-0.73c-0.83,0-1.085,0.265-1.085,0.73v2.479
		c0,0.465,0.255,0.729,1.085,0.729c0.841,0,1.095-0.265,1.095-0.729v-0.221c0-0.146,0.055-0.211,0.21-0.211h0.598
		c0.144,0,0.199,0.065,0.199,0.211v0.298c0,0.906-0.564,1.516-2.125,1.516c-1.56,0-2.112-0.609-2.112-1.516v-2.633
		c0-0.907,0.564-1.517,2.124-1.517C7.572,55.555,8.125,56.165,8.125,57.072"/>
	<path clip-path="url(#SVGID_2_)" fill="#003865" d="M9.13,57.071c0-0.906,0.652-1.516,2.213-1.516c1.559,0,2.213,0.609,2.213,1.516
		v2.634c0,0.906-0.654,1.517-2.213,1.517c-1.561,0-2.213-0.61-2.213-1.517V57.071z M12.504,57.159c0-0.476-0.331-0.74-1.161-0.74
		s-1.162,0.265-1.162,0.74v2.457c0,0.477,0.332,0.741,1.162,0.741s1.161-0.265,1.161-0.741V57.159z"/>
	<path clip-path="url(#SVGID_2_)" fill="#003865" d="M15.689,55.644c0.154,0,0.199,0.065,0.21,0.211l0.022,0.353
		c0.31-0.265,0.918-0.652,1.836-0.652c1.03,0,1.561,0.599,1.561,1.416v3.94c0,0.154-0.056,0.22-0.199,0.22h-0.642
		c-0.144,0-0.21-0.065-0.21-0.22v-3.686c0-0.453-0.211-0.729-0.819-0.729c-0.708,0-1.261,0.376-1.505,0.563v3.852
		c0,0.154-0.055,0.22-0.199,0.22h-0.642c-0.154,0-0.21-0.065-0.21-0.22v-5.057c0-0.146,0.056-0.211,0.21-0.211H15.689z"/>
	<path clip-path="url(#SVGID_2_)" fill="#003865" d="M24.813,58.421c0,0.133-0.054,0.198-0.187,0.198h-3.01v1.019
		c0,0.454,0.221,0.741,1.106,0.741c0.885,0,1.107-0.287,1.107-0.741v-0.121c0-0.145,0.055-0.21,0.21-0.21h0.564
		c0.144,0,0.21,0.065,0.21,0.21v0.187c0,0.907-0.542,1.518-2.113,1.518c-1.571,0-2.113-0.61-2.113-1.518v-2.633
		c0-0.907,0.564-1.515,2.135-1.515c1.56,0,2.091,0.607,2.091,1.515V58.421z M21.617,57.834h2.213v-0.696
		c0-0.443-0.276-0.741-1.107-0.741c-0.84,0-1.106,0.298-1.106,0.741V57.834z"/>
	<path clip-path="url(#SVGID_2_)" fill="#003865" d="M30.133,60.921c0.066,0.1,0.045,0.21-0.11,0.21h-0.708
		c-0.145,0-0.233-0.11-0.299-0.21l-1.25-1.825l-1.218,1.825c-0.066,0.1-0.144,0.21-0.298,0.21h-0.62c-0.155,0-0.177-0.11-0.11-0.21
		l1.736-2.577l-1.681-2.479c-0.078-0.122-0.045-0.22,0.111-0.22h0.708c0.154,0,0.232,0.098,0.309,0.22l1.206,1.748l1.14-1.748
		c0.077-0.122,0.166-0.22,0.31-0.22h0.63c0.144,0,0.177,0.098,0.1,0.22l-1.682,2.512L30.133,60.921z"/>
	<path clip-path="url(#SVGID_2_)" fill="#003865" d="M30.773,57.071c0-0.906,0.653-1.516,2.213-1.516s2.213,0.609,2.213,1.516v2.634
		c0,0.906-0.653,1.517-2.213,1.517s-2.213-0.61-2.213-1.517V57.071z M32.035,54.604v0.077c0,0.156-0.078,0.188-0.222,0.188H31.46
		c-0.145,0-0.189-0.089-0.178-0.243l0.022-0.354c0.033-0.62,0.432-0.884,0.874-0.884c0.222,0,0.476,0.066,0.654,0.176l0.475,0.287
		c0.154,0.089,0.332,0.211,0.443,0.211c0.187,0,0.21-0.111,0.21-0.421v-0.077c0-0.143,0.099-0.188,0.232-0.188h0.343
		c0.144,0,0.188,0.099,0.177,0.242l-0.022,0.354c-0.033,0.62-0.442,0.885-0.886,0.885c-0.165,0-0.442-0.054-0.641-0.177
		l-0.476-0.288c-0.154-0.088-0.332-0.21-0.442-0.21C32.045,54.183,32.035,54.294,32.035,54.604 M34.148,57.159
		c0-0.476-0.332-0.74-1.162-0.74c-0.829,0-1.162,0.265-1.162,0.74v2.457c0,0.477,0.333,0.741,1.162,0.741
		c0.83,0,1.162-0.265,1.162-0.741V57.159z"/>
	<path clip-path="url(#SVGID_2_)" fill="#003865" d="M40.64,58.421c0,0.133-0.055,0.198-0.188,0.198h-3.009v1.019
		c0,0.454,0.221,0.741,1.105,0.741c0.886,0,1.107-0.287,1.107-0.741v-0.121c0-0.145,0.056-0.21,0.211-0.21h0.563
		c0.145,0,0.211,0.065,0.211,0.21v0.187c0,0.907-0.542,1.518-2.113,1.518c-1.571,0-2.113-0.61-2.113-1.518v-2.633
		c0-0.907,0.564-1.515,2.134-1.515c1.561,0,2.092,0.607,2.092,1.515V58.421z M37.443,57.834h2.212v-0.696
		c0-0.443-0.276-0.741-1.107-0.741c-0.84,0-1.105,0.298-1.105,0.741V57.834z"/>
	<path clip-path="url(#SVGID_2_)" fill="#003865" d="M44.797,56.917c0-0.399-0.364-0.588-1.051-0.588
		c-0.675,0-1.029,0.188-1.029,0.588v0.187c0,0.289,0.266,0.443,0.465,0.509l1.66,0.575c0.608,0.211,0.995,0.565,0.995,1.085v0.62
		c0,0.685-0.608,1.328-2.102,1.328c-1.504,0-2.091-0.644-2.091-1.328v-0.277c0-0.133,0.055-0.198,0.188-0.198h0.587
		c0.144,0,0.188,0.065,0.188,0.198v0.233c0,0.396,0.42,0.587,1.128,0.587c0.698,0,1.128-0.19,1.128-0.587V59.55
		c0-0.267-0.22-0.409-0.586-0.531l-1.659-0.576c-0.41-0.143-0.863-0.563-0.863-1.117v-0.408c0-0.688,0.509-1.361,2.003-1.361
		c1.482,0,2.002,0.674,2.002,1.361v0.266c0,0.143-0.044,0.199-0.199,0.199h-0.576c-0.132,0-0.188-0.057-0.188-0.199V56.917z"/>
	<path clip-path="url(#SVGID_2_)" fill="#003865" d="M53.291,58.421c0,0.133-0.054,0.198-0.187,0.198h-3.011v1.019
		c0,0.454,0.223,0.741,1.106,0.741c0.885,0,1.106-0.287,1.106-0.741v-0.121c0-0.145,0.057-0.21,0.211-0.21h0.563
		c0.144,0,0.21,0.065,0.21,0.21v0.187c0,0.907-0.542,1.518-2.113,1.518c-1.569,0-2.111-0.61-2.111-1.518v-2.633
		c0-0.907,0.563-1.515,2.134-1.515c1.561,0,2.091,0.607,2.091,1.515V58.421z M50.094,57.834h2.213v-0.696
		c0-0.443-0.275-0.741-1.106-0.741c-0.84,0-1.106,0.298-1.106,0.741V57.834z"/>
	<path clip-path="url(#SVGID_2_)" fill="#003865" d="M55.602,60.911c0,0.154-0.056,0.222-0.198,0.222h-0.643
		c-0.155,0-0.211-0.067-0.211-0.222v-7.292c0-0.153,0.056-0.221,0.211-0.221h0.643c0.143,0,0.198,0.067,0.198,0.221V60.911z"/>
	<path clip-path="url(#SVGID_2_)" fill="#003865" d="M61.165,58.421c0,0.133-0.054,0.198-0.187,0.198h-3.011v1.019
		c0,0.454,0.223,0.741,1.107,0.741c0.884,0,1.105-0.287,1.105-0.741v-0.121c0-0.145,0.057-0.21,0.21-0.21h0.564
		c0.144,0,0.21,0.065,0.21,0.21v0.187c0,0.907-0.542,1.518-2.113,1.518c-1.569,0-2.111-0.61-2.111-1.518v-2.633
		c0-0.907,0.563-1.515,2.135-1.515c1.56,0,2.09,0.607,2.09,1.515V58.421z M57.968,57.835h2.213v-0.697
		c0-0.443-0.275-0.742-1.105-0.742c-0.841,0-1.107,0.299-1.107,0.742V57.835z M59.429,54.748c-0.032,0.057-0.122,0.134-0.266,0.134
		h-0.508c-0.133,0-0.189-0.057-0.112-0.199l0.654-1.185c0.065-0.121,0.143-0.198,0.287-0.198h0.686c0.155,0,0.188,0.089,0.101,0.21
		L59.429,54.748z"/>
	<path clip-path="url(#SVGID_2_)" fill="#003865" d="M64.892,55.666c0.146,0,0.211,0.057,0.211,0.199v0.443
		c0,0.155-0.065,0.221-0.211,0.221h-1.14v2.978c0,0.464,0.288,0.729,1.119,0.729h0.209c0.144,0,0.21,0.067,0.21,0.222v0.466
		c0,0.154-0.066,0.21-0.21,0.21h-0.365c-1.559,0-2.023-0.542-2.023-1.517v-3.087h-0.609c-0.155,0-0.211-0.065-0.211-0.221v-0.387
		c0-0.146,0.056-0.199,0.211-0.211l0.542-0.045h0.067v-1.116c0-0.155,0.065-0.223,0.21-0.223h0.651c0.146,0,0.199,0.067,0.199,0.223
		v1.116H64.892z"/>
	<path clip-path="url(#SVGID_2_)" fill="#003865" d="M69.217,55.765v0.51c0,0.154-0.077,0.21-0.222,0.221
		c-0.83,0.055-1.461,0.488-1.715,0.708v3.708c0,0.154-0.055,0.22-0.199,0.22H66.44c-0.156,0-0.21-0.065-0.21-0.22v-5.057
		c0-0.146,0.054-0.21,0.21-0.21h0.586c0.155,0,0.199,0.064,0.211,0.21l0.033,0.475c0.298-0.298,0.918-0.774,1.725-0.774
		C69.14,55.555,69.217,55.622,69.217,55.765"/>
	<path clip-path="url(#SVGID_2_)" fill="#003865" d="M71.106,54.615c0,0.145-0.056,0.21-0.198,0.21h-0.643
		c-0.154,0-0.21-0.065-0.21-0.21v-0.996c0-0.153,0.056-0.221,0.21-0.221h0.643c0.143,0,0.198,0.067,0.198,0.221V54.615z
		 M71.106,60.911c0,0.154-0.056,0.222-0.198,0.222h-0.643c-0.154,0-0.21-0.067-0.21-0.222v-5.046c0-0.154,0.056-0.221,0.21-0.221
		h0.643c0.143,0,0.198,0.066,0.198,0.221V60.911z"/>
	<path clip-path="url(#SVGID_2_)" fill="#003865" d="M76.682,57.072v0.198c0,0.155-0.056,0.21-0.198,0.21h-0.599
		c-0.153,0-0.21-0.055-0.21-0.21v-0.121c0-0.466-0.255-0.73-1.096-0.73c-0.829,0-1.084,0.265-1.084,0.73v2.479
		c0,0.465,0.255,0.729,1.084,0.729c0.841,0,1.096-0.265,1.096-0.729v-0.221c0-0.146,0.057-0.211,0.21-0.211h0.599
		c0.143,0,0.198,0.065,0.198,0.211v0.298c0,0.906-0.563,1.516-2.125,1.516c-1.56,0-2.111-0.609-2.111-1.516v-2.633
		c0-0.907,0.563-1.517,2.124-1.517C76.128,55.555,76.682,56.165,76.682,57.072"/>
	<path clip-path="url(#SVGID_2_)" fill="#003865" d="M77.765,57.05c0-0.886,0.575-1.495,2.091-1.495c1.56,0,2.091,0.609,2.091,1.495
		v3.861c0,0.153-0.055,0.221-0.199,0.221h-0.574c-0.155,0-0.199-0.067-0.212-0.221l-0.021-0.321c-0.321,0.254-0.907,0.63-1.748,0.63
		c-1.029,0-1.56-0.619-1.56-1.338V59.35c0-0.718,0.509-1.339,1.537-1.339h1.748V57.16c0-0.453-0.231-0.751-1.072-0.751
		c-0.842,0-1.096,0.266-1.096,0.718v0.09c0,0.154-0.056,0.22-0.211,0.22h-0.574c-0.145,0-0.199-0.065-0.199-0.22V57.05z
		 M80.917,59.782v-0.951h-1.525c-0.555,0-0.731,0.243-0.731,0.676v0.22c0,0.433,0.243,0.619,0.797,0.619
		C80.133,60.345,80.662,59.981,80.917,59.782"/>
	<path clip-path="url(#SVGID_2_)" fill="#003865" d="M86.236,56.917c0-0.399-0.364-0.588-1.051-0.588
		c-0.675,0-1.029,0.188-1.029,0.588v0.187c0,0.289,0.267,0.443,0.466,0.509l1.658,0.575c0.608,0.211,0.996,0.565,0.996,1.085v0.62
		c0,0.685-0.607,1.328-2.102,1.328c-1.504,0-2.091-0.644-2.091-1.328v-0.277c0-0.133,0.055-0.198,0.188-0.198h0.586
		c0.145,0,0.189,0.065,0.189,0.198v0.233c0,0.396,0.419,0.587,1.128,0.587c0.697,0,1.128-0.19,1.128-0.587V59.55
		c0-0.267-0.22-0.409-0.587-0.531l-1.659-0.576c-0.409-0.143-0.863-0.563-0.863-1.117v-0.408c0-0.688,0.51-1.361,2.003-1.361
		c1.482,0,2.003,0.674,2.003,1.361v0.266c0,0.143-0.045,0.199-0.198,0.199h-0.576c-0.132,0-0.188-0.057-0.188-0.199V56.917z"/>
</g>
</svg>
